<?xml version="1.0" standalone="no"?>
<!DOCTYPE svg PUBLIC "-//W3C//DTD SVG 20010904//EN"
 "http://www.w3.org/TR/2001/REC-SVG-20010904/DTD/svg10.dtd">
<svg version="1.0" xmlns="http://www.w3.org/2000/svg"
 width="600.000000pt" height="600.000000pt" viewBox="0 0 600.000000 600.000000"
 preserveAspectRatio="xMidYMid meet">

<g transform="translate(0.000000,600.000000) scale(0.100000,-0.100000)"
fill="#000000" stroke="none">
<path d="M0 3000 l0 -3000 3000 0 3000 0 0 3000 0 3000 -3000 0 -3000 0 0
-3000z m1905 1390 c187 -22 349 -92 490 -214 l40 -35 -37 -37 -37 -37 -53 41
c-85 65 -165 109 -252 139 -76 26 -91 28 -251 28 -153 0 -177 -3 -240 -24
-143 -49 -253 -119 -345 -219 -68 -74 -68 -74 -112 -147 -164 -275 -135 -664
70 -903 l45 -54 -40 -40 -40 -40 -52 63 c-67 83 -141 231 -172 344 -34 125
-34 329 0 455 94 354 396 624 756 675 116 17 123 17 230 5z m1297 -47 c39 -23
66 -59 74 -100 l7 -33 -52 0 c-44 0 -51 3 -51 19 0 34 -47 61 -104 61 -66 0
-96 -20 -96 -64 0 -19 6 -39 14 -45 8 -6 57 -22 109 -35 52 -13 107 -30 122
-37 102 -50 93 -199 -15 -256 -61 -32 -177 -33 -240 0 -51 25 -90 77 -90 118
0 28 2 29 45 29 34 0 45 -4 45 -16 0 -8 13 -29 29 -45 26 -26 36 -29 93 -29
82 0 108 17 108 69 0 34 -4 39 -37 54 -21 8 -69 22 -106 31 -105 24 -137 43
-159 94 -43 97 20 194 137 212 53 7 129 -5 167 -27z m568 -23 l0 -40 -80 0
-80 0 0 -220 0 -220 -50 0 -50 0 -2 218 -3 217 -77 3 -78 3 0 39 0 40 210 0
210 0 0 -40z m345 23 c21 -54 175 -492 175 -500 0 -2 -24 -3 -53 -3 l-53 0
-15 53 -16 52 -103 0 -103 0 -17 -50 -17 -50 -51 -3 c-29 -2 -52 -1 -52 2 0 2
18 53 39 113 22 59 63 174 92 256 l53 147 57 0 c45 0 58 -4 64 -17z m635 -23
l0 -40 -80 0 -80 0 0 -220 0 -220 -50 0 -50 0 0 220 0 220 -80 0 -80 0 0 40 0
40 210 0 210 0 0 -40z m450 0 l0 -40 -135 0 -135 0 0 -65 0 -65 125 0 125 0 0
-40 0 -40 -125 0 -125 0 0 -70 0 -70 93 0 c50 0 116 -3 145 -6 l52 -7 0 -38 0
-39 -195 0 -195 0 0 260 0 260 185 0 185 0 0 -40z m-3290 -165 c84 -18 144
-38 210 -73 48 -25 150 -100 150 -110 0 -4 -16 -23 -36 -43 l-37 -37 -51 40
c-212 169 -529 155 -729 -32 -217 -203 -241 -538 -54 -773 l30 -39 -36 -36
-37 -37 -34 35 c-81 82 -147 236 -161 375 -23 239 100 495 301 625 75 49 143
77 244 100 97 23 148 24 240 5z m12 -231 c57 -13 123 -48 166 -87 l22 -21 -36
-37 -37 -38 -31 22 c-72 52 -150 73 -239 63 -181 -19 -307 -159 -307 -341 0
-81 15 -133 56 -195 l27 -41 -37 -37 -37 -37 -29 35 c-75 89 -109 223 -90 346
16 98 60 181 134 252 86 83 145 110 291 135 27 5 77 -2 147 -19z m642 -224
l149 -71 -23 -24 c-21 -23 -25 -23 -51 -10 -41 22 -49 19 -96 -27 -47 -46 -50
-56 -28 -97 13 -26 13 -30 -10 -51 l-24 -23 -81 168 -81 168 27 28 c31 32 15
37 218 -61z m644 -72 c99 -25 172 -137 172 -263 0 -126 -72 -239 -170 -265
-63 -17 -159 -8 -209 21 -141 79 -164 327 -42 449 65 65 146 84 249 58z m632
-48 l0 -40 -135 0 -135 0 0 -65 0 -65 120 0 120 0 0 -40 0 -39 -117 -3 -118
-3 -3 -112 -3 -113 -49 0 -50 0 0 260 0 260 185 0 185 0 0 -40z m-1827 -222
l-37 -38 102 -103 c56 -56 102 -106 102 -111 0 -5 -8 -18 -17 -28 -16 -18 -21
-15 -125 89 l-108 107 -40 -39 c-38 -37 -41 -38 -57 -22 -17 16 -12 23 82 117
94 94 100 99 117 83 18 -16 17 -18 -19 -55z m541 -323 c117 -163 178 -384 161
-584 -26 -317 -220 -606 -500 -746 -158 -78 -212 -90 -420 -90 -175 1 -182 2
-272 33 -112 38 -229 104 -301 169 l-54 48 36 35 c27 25 40 32 50 25 7 -6 35
-27 62 -47 66 -50 143 -90 239 -125 76 -26 89 -28 245 -28 152 0 172 2 250 27
298 95 520 369 549 678 23 236 -47 460 -191 615 l-27 30 36 37 37 38 29 -28
c16 -15 48 -54 71 -87z m-215 -106 c50 -63 106 -175 126 -254 20 -77 19 -243
0 -320 -69 -268 -281 -462 -558 -511 -86 -15 -108 -16 -180 -4 -137 21 -264
78 -357 158 l-35 30 39 41 c36 36 40 38 55 24 33 -34 134 -92 194 -113 86 -30
231 -38 315 -16 257 66 432 287 432 547 0 41 -9 106 -19 146 -20 76 -75 186
-110 217 -12 11 -21 24 -21 30 0 12 60 76 72 76 4 0 26 -23 47 -51z m-668 -5
c48 -30 97 -91 109 -135 16 -57 2 -98 -51 -150 -72 -73 -135 -77 -216 -16 -49
38 -90 98 -99 144 -13 70 65 169 144 183 46 8 67 3 113 -26z m1607 -81 l3 -43
-80 0 -81 0 -2 -217 -3 -218 -47 -3 -48 -3 0 220 0 221 -75 0 -75 0 0 45 0 45
203 -2 202 -3 3 -42z m172 -58 l0 -106 108 3 107 3 3 103 3 103 47 -3 47 -3 0
-260 0 -260 -47 -3 -48 -3 0 120 0 121 -110 0 -110 0 0 -120 0 -120 -50 0 -50
0 0 265 0 265 50 0 50 0 0 -105z m818 58 l3 -43 -145 0 -146 0 0 -60 0 -60
131 0 130 0 -3 -42 -3 -43 -127 -3 -128 -3 0 -69 0 -70 150 0 150 0 0 -45 0
-45 -195 0 -195 0 0 265 0 265 188 -2 187 -3 3 -42z m-2053 -130 c13 -28 32
-85 41 -126 15 -69 15 -80 1 -146 -9 -39 -29 -97 -44 -129 -33 -70 -130 -170
-198 -204 -141 -70 -305 -64 -443 17 -87 50 -88 55 -42 100 l40 39 22 -22 c49
-45 117 -66 213 -66 111 0 166 22 242 96 64 63 95 130 101 223 5 80 -19 163
-64 222 l-26 35 38 39 38 39 28 -33 c15 -17 39 -55 53 -84z m-1047 -236 c22
-17 -15 -47 -60 -47 -63 0 -113 -71 -76 -108 20 -20 42 -14 114 28 74 43 107
49 142 24 39 -27 55 -70 42 -110 -16 -47 -54 -91 -101 -114 -45 -24 -78 -25
-104 -6 -19 14 -19 15 -2 34 14 16 27 19 53 15 29 -5 38 -1 69 30 38 38 44 67
19 91 -22 22 -31 21 -99 -20 -33 -20 -78 -39 -101 -41 -36 -5 -43 -2 -67 27
-47 55 -33 121 38 182 38 34 100 40 133 15z m2002 -331 c0 -4 162 -464 175
-498 6 -16 0 -18 -47 -18 l-54 0 -18 55 -17 55 -100 0 c-110 0 -98 7 -129 -77
-12 -31 -15 -33 -61 -33 -27 0 -49 1 -49 3 0 3 61 177 130 370 l53 147 58 0
c33 0 59 -2 59 -4z m574 -5 c112 -27 153 -178 65 -243 l-29 -22 26 -21 c27
-21 50 -101 38 -137 -3 -9 -1 -33 5 -53 l9 -35 -48 0 c-27 0 -52 5 -56 11 -4
7 -9 44 -12 83 -7 107 -6 106 -117 106 l-95 0 0 -100 0 -100 -44 0 -43 0 -6
83 c-4 45 -7 162 -7 260 l0 177 138 0 c75 0 154 -5 176 -9z m596 -36 l0 -45
-80 0 -80 0 0 -215 0 -215 -50 0 -50 0 0 215 0 215 -80 0 -80 0 0 45 0 45 210
0 210 0 0 -45z"/>
<path d="M4021 4152 c-13 -42 -26 -85 -28 -94 -5 -16 2 -18 57 -18 55 0 62 2
57 18 -20 73 -53 172 -57 172 -3 0 -16 -35 -29 -78z"/>
<path d="M2410 3694 c0 -6 49 -101 57 -113 2 -3 18 9 35 26 l31 31 -44 23
c-57 31 -79 40 -79 33z"/>
<path d="M3074 3536 c-53 -24 -78 -71 -82 -153 -5 -88 9 -133 54 -173 68 -59
174 -31 210 57 34 80 6 221 -50 258 -35 23 -95 28 -132 11z"/>
<path d="M1506 2849 c-41 -48 -32 -93 30 -153 63 -61 139 -58 170 8 23 46 12
81 -40 133 -38 38 -49 43 -89 43 -38 0 -49 -5 -71 -31z"/>
<path d="M3074 1922 l-30 -97 59 -3 c33 -2 61 -1 64 1 5 6 -46 178 -56 189 -3
4 -20 -36 -37 -90z"/>
<path d="M3540 1990 l0 -70 83 0 c100 0 127 14 127 66 0 59 -26 74 -125 74
l-85 0 0 -70z"/>
</g>
</svg>
